<svg width="122" height="19" viewBox="0 0 122 19" fill="none" xmlns="http://www.w3.org/2000/svg">
<path d="M67.2771 8.02265C68.8706 5.3812 71.73 3.76724 74.8144 3.76724C75.6524 3.76724 84.9077 3.77224 85.0442 3.77224C86.2537 3.77224 87.1602 4.05973 87.8022 4.56172C87.8237 4.57872 87.8517 4.55522 87.8387 4.53122C86.7082 2.46276 84.6537 0.518305 82.1718 0.500305C82.1648 0.500305 74.5694 0.505805 74.5694 0.505805C69.965 0.573804 67.3461 3.48374 67.2231 8.00615C67.2226 8.03615 67.2616 8.04815 67.2771 8.02265Z" fill="url(#paint0_linear_1531_155)"/>
<path d="M92.473 9.51161C92.473 2.49826 88.7181 0.209808 84.3857 0.528802C84.3602 0.530802 84.3537 0.564801 84.3762 0.576301C86.9592 1.87377 89.2191 4.44022 89.2191 9.50011C89.2191 14.4285 87.3711 16.937 84.5282 18.4459C84.5062 18.4579 84.5122 18.4894 84.5372 18.4909C85.1062 18.5244 92.473 18.8449 92.473 9.51161Z" fill="url(#paint1_linear_1531_155)"/>
<path d="M84.7457 17.9014C86.1092 17.0975 87.3422 15.874 87.9476 14.426C87.9576 14.402 87.9291 14.381 87.9091 14.3975C87.7481 14.5295 87.1132 15.228 84.2907 15.228C81.0038 15.228 74.9179 15.228 74.6839 15.228C71.781 15.228 70.5465 13.774 70.5465 9.51511C70.5465 6.19568 71.273 5.2547 71.558 4.95021C71.5785 4.92721 71.5515 4.89071 71.524 4.90371C70.1245 5.5177 68.918 6.50068 68.0331 7.74715C66.5801 9.72961 67.1401 14.1015 69.2425 16.3785C70.6335 17.8584 72.718 18.5169 74.6349 18.4954L82.4328 18.4999C83.2427 18.5044 84.0397 18.2979 84.7457 17.9014Z" fill="url(#paint2_linear_1531_155)"/>
<path d="M25.9995 18.4999H23.0495C22.8495 18.4999 22.6495 18.2999 22.6495 18.0999V7.50016C22.6495 5.7002 21.1996 4.20023 19.3496 4.20023H14.3497C12.5497 4.20023 11.0498 5.6502 11.0498 7.50016V18.0999C11.0498 18.2999 10.8498 18.4999 10.6498 18.4999H7.69984C7.49984 18.4999 7.29985 18.2999 7.29985 18.0999V7.50016C7.29985 3.65024 10.4498 0.500305 14.2997 0.500305H19.2996C23.1495 0.500305 26.2994 3.65024 26.2994 7.50016V18.0999C26.3994 18.2999 26.2495 18.4999 25.9995 18.4999Z" fill="#1476FC"/>
<path d="M3.29993 18.4999H0.399992C0.199996 18.4999 0 18.2999 0 18.0999V0.900297C0 0.700301 0.199996 0.500305 0.399992 0.500305H3.34993C3.54993 0.500305 3.74992 0.700301 3.74992 0.900297V18.0999C3.69992 18.2999 3.54993 18.4999 3.29993 18.4999Z" fill="#1476FC"/>
<path d="M121.597 18.4999H118.648C118.448 18.4999 118.248 18.2999 118.248 18.0999V0.900297C118.248 0.700301 118.448 0.500305 118.648 0.500305H121.597C121.797 0.500305 121.997 0.700301 121.997 0.900297V18.0999C121.997 18.2999 121.797 18.4999 121.597 18.4999Z" fill="#1476FC"/>
<path d="M112.798 8.75013C113.348 7.95015 113.698 6.95017 113.698 5.90019V5.6502C113.698 2.85026 111.398 0.500305 108.598 0.500305H95.548C95.348 0.500305 95.148 0.700301 95.148 0.900297V18.0999C95.148 18.2999 95.348 18.4999 95.548 18.4999H109.098C112.098 18.4999 114.548 16 114.548 13V12.7001C114.548 11.1501 113.898 9.75011 112.798 8.75013ZM98.8979 4.25023H108.598C109.348 4.25023 109.998 4.85021 109.998 5.6502V5.90019C109.998 6.65018 109.398 7.30016 108.598 7.30016H98.8979V4.25023ZM110.848 13C110.848 13.95 110.048 14.75 109.098 14.75H98.8479V11.0001H109.048C109.998 11.0001 110.798 11.8001 110.798 12.75V13H110.848Z" fill="#1476FC"/>
<path d="M57.3488 0.500305H52.3489C50.299 0.500305 48.499 1.35029 47.199 2.75026C45.949 1.35029 44.1491 0.500305 42.0991 0.500305H37.0992C33.2493 0.500305 30.0994 3.65024 30.0994 7.50016V18.0999C30.0994 18.2999 30.2994 18.4999 30.4994 18.4999H33.4493C33.6493 18.4999 33.8493 18.2999 33.8493 18.0999V7.50016C33.8493 5.7002 35.2993 4.20023 37.1492 4.20023H42.1491C43.9491 4.20023 45.4491 5.6502 45.4491 7.50016V18.0999C45.4491 18.2999 45.649 18.4999 45.849 18.4999H48.799C48.999 18.4999 49.199 18.2999 49.199 18.0999V7.50016C49.199 5.7002 50.6489 4.20023 52.4989 4.20023H57.4988C59.2988 4.20023 60.7987 5.6502 60.7987 7.50016V18.0999C60.7987 18.2999 60.9987 18.4999 61.1987 18.4999H64.1487C64.3487 18.4999 64.5487 18.2999 64.5487 18.0999V7.50016C64.3487 3.65024 61.1987 0.500305 57.3488 0.500305Z" fill="#1476FC"/>
<defs>
<linearGradient id="paint0_linear_1531_155" x1="65.9986" y1="10.2501" x2="90.2481" y2="10.2501" gradientUnits="userSpaceOnUse">
<stop stop-color="#A3D070"/>
<stop offset="1" stop-color="#1476FA"/>
</linearGradient>
<linearGradient id="paint1_linear_1531_155" x1="46.0565" y1="1.00147" x2="46.5404" y2="18.4765" gradientUnits="userSpaceOnUse">
<stop stop-color="#FFD322"/>
<stop offset="1" stop-color="#1476FA"/>
</linearGradient>
<linearGradient id="paint2_linear_1531_155" x1="56.9988" y1="26.7498" x2="67.2396" y2="35.7661" gradientUnits="userSpaceOnUse">
<stop stop-color="#FA4B38"/>
<stop offset="1" stop-color="#1476FA"/>
</linearGradient>
</defs>
</svg>
